<svg xmlns="http://www.w3.org/2000/svg" viewBox="0 0 283.15 116.53"><defs><style>.cls-1{fill:#999;}.cls-2{fill:#f2f2f2;}.cls-3{fill:#fcee21;}.cls-4{fill:#e6e6e6;}.cls-5{fill:#ccc;}.cls-6,.cls-8{fill:none;}.cls-6{stroke:#e6e6e6;stroke-miterlimit:10;}.cls-7{fill:#1a177a;}</style></defs><title>Asset 3</title><g id="Layer_2" data-name="Layer 2"><g id="Layer_1-2" data-name="Layer 1"><circle class="cls-1" cx="50.59" cy="96.33" r="20.2"/><circle class="cls-2" cx="50.59" cy="96.33" r="12.05"/><path class="cls-3" d="M280.7,95.87,91.63,99.17,0,90.82l2.43-7a3.68,3.68,0,0,1,3.42-2.49l2.32,0L26.33,45.18A82.12,82.12,0,0,1,99.67,0h35.76a57.08,57.08,0,0,1,41,17.36L196.34,37.9l46.27,2.51c15.83.66,26.18,5.33,29.33,14.25h0l5,2.22,1,6.45-4.36,2,2.85,18.17,3,.74a4.78,4.78,0,0,1,3.63,4.63v4.55A2.49,2.49,0,0,1,280.7,95.87Z"/><path class="cls-4" d="M181.47,40.07H123.35a4.15,4.15,0,0,1-4.15-4.15V9.44A2.77,2.77,0,0,1,122,6.68h6.85a58.61,58.61,0,0,1,41.24,17L183,36.42A2.13,2.13,0,0,1,181.47,40.07Z"/><path class="cls-5" d="M108.46,40.24a6.09,6.09,0,0,1-3.08.83H70a4.57,4.57,0,0,1-4.22-6.34l3.4-8.16a32.37,32.37,0,0,1,7.38-10.81Z"/><path class="cls-4" d="M111.52,11.88v23a6.13,6.13,0,0,1-3.06,5.31L76.54,15.76A32.37,32.37,0,0,1,99,6.68h7.29A5.2,5.2,0,0,1,111.52,11.88Z"/><line class="cls-6" x1="111.52" y1="31.39" x2="111.52" y2="98.5"/><path class="cls-6" d="M66,34.89c-2,15.36,5.34,61.77,5.34,61.77"/><line class="cls-6" x1="119.37" y1="31.39" x2="119.37" y2="98.5"/><line class="cls-6" x1="196.5" y1="38.06" x2="196.5" y2="98.5"/><circle class="cls-1" cx="229.22" cy="96.33" r="20.2"/><circle class="cls-2" cx="229.22" cy="96.33" r="12.05"/><path class="cls-7" d="M11.63,91.88c.47,0,12.62-12.78,26.06-27C52.2,49.48,78.06,57.78,80.91,78.73L83.6,98.44Z"/><line class="cls-8" x1="115.2" y1="45.41" x2="108.46" y2="40.24"/><line class="cls-8" x1="76.54" y1="15.76" x2="70.79" y2="11.35"/><rect class="cls-7" x="125.88" y="53.09" width="15.69" height="3.34" rx="1.24" ry="1.24"/><path class="cls-2" d="M266.76,54.85h-7.32A2.48,2.48,0,0,1,257,52.37V50.55a2.47,2.47,0,0,1,2.61-2.47l2.66.15a6.47,6.47,0,0,1,5.35,3.4l.52,1A1.52,1.52,0,0,1,266.76,54.85Z"/></g></g></svg>