<svg xmlns="http://www.w3.org/2000/svg" viewBox="0 0 274.18 160.5"><defs><style>.cls-1{fill:#1b1464;}.cls-2{fill:#1a177a;}.cls-3{fill:#f2f2f2;}.cls-4{fill:#ccc;}.cls-5{fill:#fcee21;}</style></defs><title>Asset 1</title><g id="Layer_2" data-name="Layer 2"><g id="Layer_1-2" data-name="Layer 1"><path class="cls-1" d="M19.58,0a12,12,0,0,0-12,12V132.87H0V140H7.59v5.49h124V0Z"/><path class="cls-2" d="M274.18,127.73V143.5a2,2,0,0,1-2,2H131.61V0h82.1A10.65,10.65,0,0,1,222,3.94l44.21,54.52a13.15,13.15,0,0,1,2.94,8.28v59h3A2,2,0,0,1,274.18,127.73Z"/><path class="cls-3" d="M246.92,54H183.29a8.66,8.66,0,0,1-8.66-8.66V18.78a8.66,8.66,0,0,1,8.66-8.66h22.45a18.9,18.9,0,0,1,14.63,6.94l27.89,34.12A1.72,1.72,0,0,1,246.92,54Z"/><path class="cls-3" d="M163.66,16.85v30a6.67,6.67,0,0,1-2,4.8L88.79,11.78a6.65,6.65,0,0,1,4.38-1.63H157A6.7,6.7,0,0,1,163.66,16.85Z"/><rect class="cls-4" x="17.29" y="10.15" width="55.26" height="43.39" rx="15.88" ry="15.88"/><path class="cls-4" d="M161.63,51.65A6.66,6.66,0,0,1,157,53.54H93.17a6.69,6.69,0,0,1-6.7-6.69v-30a6.68,6.68,0,0,1,2.32-5.07Z"/><rect class="cls-5" x="180.11" y="69.6" width="19.83" height="4.22" rx="2.11" ry="2.11"/><path class="cls-4" d="M62.22,114.31a23,23,0,1,0,23,23A23,23,0,0,0,62.22,114.31Zm0,36.7A13.71,13.71,0,1,1,75.93,137.3,13.71,13.71,0,0,1,62.22,151Z"/><circle class="cls-3" cx="62.22" cy="137.3" r="13.71"/><circle class="cls-4" cx="213.7" cy="137.51" r="22.99"/><circle class="cls-3" cx="213.7" cy="137.51" r="13.71"/><path class="cls-3" d="M255.18,63.27h3.05a6.66,6.66,0,0,1,6.66,6.66v0a3,3,0,0,1-3,3h-6.68a3.78,3.78,0,0,1-3.78-3.78V67.05a3.78,3.78,0,0,1,3.78-3.78Z"/></g></g></svg>