<svg xmlns="http://www.w3.org/2000/svg" viewBox="0 0 686.37 340.5"><defs><style>.cls-1{fill:#1b1464;}.cls-2{fill:#1a177a;}.cls-3{fill:#f2f2f2;}.cls-4{fill:#ccc;}.cls-5{fill:#fcee21;}.cls-6{fill:#d9e021;}.cls-7{fill:none;}.cls-8{fill:#fff;}</style></defs><title>Asset 12</title><g id="Layer_2" data-name="Layer 2"><g id="Layer_1-2" data-name="Layer 1"><path class="cls-1" d="M383.9,0V308.73H121.17a79.23,79.23,0,0,0-.36-140.68V25.44A25.44,25.44,0,0,1,146.25,0Z"/><path class="cls-2" d="M686.37,271v33.47a4.29,4.29,0,0,1-4.3,4.29H383.9V0H558.09A22.55,22.55,0,0,1,575.6,8.35L669.4,124a27.92,27.92,0,0,1,6.23,17.58V266.67h6.44A4.3,4.3,0,0,1,686.37,271Z"/><path class="cls-3" d="M649.18,132.44h12.7a10.16,10.16,0,0,1,10.16,10.16v5.78a4.63,4.63,0,0,1-4.63,4.63H649.18a5.77,5.77,0,0,1-5.77-5.77v-9A5.77,5.77,0,0,1,649.18,132.44Z"/><path class="cls-3" d="M628.55,114.54h-135a18.36,18.36,0,0,1-18.37-18.36V39.85a18.36,18.36,0,0,1,18.37-18.37h47.63a40.07,40.07,0,0,1,31,14.72l59.16,72.38A3.65,3.65,0,0,1,628.55,114.54Z"/><path class="cls-3" d="M451.91,35.74V99.38a14.13,14.13,0,0,1-4.31,10.19L293.07,25a14.19,14.19,0,0,1,9.29-3.45H437.7A14.2,14.2,0,0,1,451.91,35.74Z"/><rect class="cls-4" x="141.39" y="21.54" width="117.23" height="92.06" rx="15.88" ry="15.88"/><path class="cls-4" d="M447.6,109.57a14.09,14.09,0,0,1-9.9,4H302.36a14.21,14.21,0,0,1-14.21-14.21V35.74A14.2,14.2,0,0,1,293.07,25Z"/><rect class="cls-4" x="486.81" y="147.65" width="42.06" height="8.95"/><path class="cls-4" d="M236.69,242.51a48.77,48.77,0,1,0,48.78,48.77A48.78,48.78,0,0,0,236.69,242.51Zm0,77.86a29.09,29.09,0,1,1,29.09-29.09A29.09,29.09,0,0,1,236.69,320.37Z"/><circle class="cls-3" cx="236.69" cy="291.28" r="29.08"/><circle class="cls-4" cx="558.07" cy="291.73" r="48.77"/><circle class="cls-3" cx="558.07" cy="291.73" r="29.08"/><path class="cls-5" d="M115.44,168.05a76.93,76.93,0,0,0-8.65-3.82l-4.88,12.53A65.9,65.9,0,0,1,145,238.48a65.67,65.67,0,0,1-62.39,65.69c-1.12.06-2.26.09-3.38.09a65.37,65.37,0,0,1-25.07-5l-4.88,12.53a78.83,78.83,0,0,0,30,5.86c1.37,0,2.72,0,4.07-.11a79.21,79.21,0,0,0,32.17-149.52Z"/><path class="cls-6" d="M106.79,164.23l-4.88,12.53A65.77,65.77,0,0,0,54.13,299.29l-4.88,12.53a79.22,79.22,0,0,1,57.54-147.59Z"/><path class="cls-5" d="M141.39,238.48a62.14,62.14,0,0,1-59,62.12c-1.06,0-2.14.08-3.2.08A61.7,61.7,0,0,1,55.43,296l45.18-115.86A62.3,62.3,0,0,1,141.39,238.48Z"/><path class="cls-6" d="M100.61,180.09,55.43,296a62.19,62.19,0,0,1,45.18-115.86Z"/><polyline class="cls-7" points="101.91 176.76 101.26 178.41 100.61 180.09"/><polyline class="cls-7" points="55.43 295.95 54.77 297.63 54.13 299.29"/><path class="cls-8" d="M51.29,238.65v-.22C51.29,222.54,63.7,209,80.14,209a29.09,29.09,0,0,1,20.68,8.16,3.94,3.94,0,0,1,1.31,2.94,4,4,0,0,1-4,4,4.29,4.29,0,0,1-2.72-1c-4-3.7-8.6-6.75-15.35-6.75-11.43,0-20.14,9.69-20.14,21.78v.21c0,12.2,8.93,21.89,20.68,21.89,6.43,0,11.54-2.94,15.68-6.86a3.32,3.32,0,0,1,2.4-1.09,3.93,3.93,0,0,1,3.81,3.81,3.8,3.8,0,0,1-1.09,2.61c-5.34,5.34-11.76,9-21.23,9A28.9,28.9,0,0,1,51.29,238.65Z"/><path class="cls-8" d="M87.44,194.29l-24.3,73-3.53,10.61c-1.64,4.93,6.14,7,7.77,2.14l24.29-73,3.53-10.61c1.64-4.92-6.13-7-7.76-2.14Z"/></g></g></svg>