<svg xmlns="http://www.w3.org/2000/svg" viewBox="0 0 903 665.1"><defs><style>.cls-1{fill:#1a177a;}.cls-2{fill:#1b1464;}.cls-3{fill:#fcee21;}.cls-4{fill:#d9e021;}.cls-5{fill:none;}.cls-6{fill:#fff;}</style></defs><title>Asset 7</title><g id="Layer_2" data-name="Layer 2"><g id="Layer_1-2" data-name="Layer 1"><path class="cls-1" d="M280.46,54.25H410.71V0H231.43a35.72,35.72,0,0,0-35.72,35.73V212h-13.5a70,70,0,0,0-69.89,69.89V493.3a10.05,10.05,0,0,1-20.1,0V257.06a157,157,0,0,0-10.71-57.12L26.92,82.38l-22.1,8,30,89.88A25,25,0,0,0,7,199.5L.64,227.09a25,25,0,0,0,18.82,30l27.59,6.3a25.13,25.13,0,0,0,5.63.64c.46,0,.91,0,1.37,0V493.3a48.23,48.23,0,0,0,96.45,0V281.88a31.74,31.74,0,0,1,31.71-31.71h13.5V574.68H136.09A56.91,56.91,0,0,0,79.16,631.6v33.5l116.55-2h215v-420H280.46a36.53,36.53,0,0,1-36.53-36.53V90.78A36.54,36.54,0,0,1,280.46,54.25ZM51.08,245.76l-27.59-6.31a7,7,0,0,1-5.22-8.32l6.31-27.59a6.92,6.92,0,0,1,8.32-5.23l8.52,1.95,4.51,13.52a119.16,119.16,0,0,1,7.59,32.08A7.18,7.18,0,0,1,51.08,245.76Z"/><path class="cls-2" d="M735.22,631.6v33.5l-116.54-2h-208v-420h120.2a36.53,36.53,0,0,0,36.53-36.53V90.78a36.54,36.54,0,0,0-36.53-36.53H410.71V0H583a35.73,35.73,0,0,1,35.73,35.73V273A193.74,193.74,0,0,0,531.27,435c0,107.09,86.8,193.9,193.9,193.9,3.34,0,6.67-.08,10-.26C735.2,629.65,735.22,630.62,735.22,631.6Z"/><path class="cls-3" d="M787.14,268.29l-11,28.13c56.38,20.8,96.69,75.09,96.69,138.61A147.52,147.52,0,0,1,732.77,582.51c-2.51.14-5.09.2-7.6.2a146.48,146.48,0,0,1-56.28-11.15l-11,28.13a177.27,177.27,0,0,0,67.25,13.16c3.08,0,6.11-.08,9.14-.24a177.86,177.86,0,0,0,52.83-344.32Z"/><path class="cls-4" d="M787.14,268.29l-11,28.13A147.68,147.68,0,0,0,668.89,571.56l-11,28.13a177.88,177.88,0,0,1,129.22-331.4Z"/><path class="cls-3" d="M864.82,435A139.51,139.51,0,0,1,732.37,574.5c-2.4.12-4.81.18-7.2.18a138.92,138.92,0,0,1-53.37-10.61L773.26,303.92A139.89,139.89,0,0,1,864.82,435Z"/><path class="cls-4" d="M773.26,303.92,671.8,564.07A139.65,139.65,0,0,1,773.26,303.92Z"/><polyline class="cls-5" points="776.17 296.42 774.72 300.14 773.26 303.92"/><polyline class="cls-5" points="671.8 564.07 670.34 567.84 668.89 571.56"/><path class="cls-6" d="M662.51,435.4v-.49c0-35.69,27.87-66,64.78-66,21,0,35.2,8.07,46.44,18.33a8.86,8.86,0,0,1,2.94,6.6,9,9,0,0,1-9,9.05,9.77,9.77,0,0,1-6.11-2.2c-9-8.31-19.31-15.16-34.47-15.16-25.66,0-45.22,21.76-45.22,48.89v.49c0,27.38,20,49.14,46.45,49.14,14.42,0,25.91-6.6,35.2-15.4a7.45,7.45,0,0,1,5.38-2.45,8.83,8.83,0,0,1,8.55,8.56,8.58,8.58,0,0,1-2.44,5.87c-12,12-26.4,20.29-47.67,20.29C690.38,500.92,662.51,470.85,662.51,435.4Z"/><path class="cls-6" d="M743.67,335.8,689.13,499.59l-7.93,23.83c-3.69,11.06,13.77,15.81,17.43,4.8l54.55-163.79,7.93-23.82c3.69-11.07-13.77-15.82-17.44-4.81Z"/><line class="cls-5" x1="410.71" y1="243.13" x2="410.71" y2="54.25"/></g></g></svg>