<svg xmlns="http://www.w3.org/2000/svg" viewBox="0 0 190.84 216.54"><defs><style>.cls-1{fill:#404041;}.cls-2{fill:#231f20;}.cls-3{fill:#fcee21;}.cls-4{fill:#8a5d3b;}.cls-5{fill:none;stroke:#231f20;stroke-miterlimit:10;}.cls-6,.cls-7,.cls-9{fill:#2c130b;}.cls-6{opacity:0.73;}.cls-7{opacity:0.5;}.cls-8{fill:#ab5826;}.cls-8,.cls-9{opacity:0.35;}</style></defs><title>Asset 9</title><g id="Layer_2" data-name="Layer 2"><g id="Layer_1-2" data-name="Layer 1"><rect class="cls-1" x="43.96" y="113.48" width="22.59" height="6.64"/><path class="cls-2" d="M120.15,84.31a14.17,14.17,0,0,1-.86-4.75,34.75,34.75,0,0,1,.13-4.68c.13-1.56.34-3.1.6-4.63s.58-3,.92-4.56c-.26,1.53-.49,3.06-.67,4.6s-.31,3.08-.36,4.62a33.58,33.58,0,0,0,.13,4.6,18.76,18.76,0,0,0,.33,2.25,9.22,9.22,0,0,0,.66,2.06Z"/><path class="cls-2" d="M127.51,30.85a7.14,7.14,0,0,0-1.09,2,13.45,13.45,0,0,0-.63,2.36,19.75,19.75,0,0,0-.29,2.45c0,.83,0,1.66,0,2.49-.1-.83-.19-1.66-.22-2.49a19.27,19.27,0,0,1,0-2.52,14.44,14.44,0,0,1,.41-2.51,7.86,7.86,0,0,1,1-2.45Z"/><path class="cls-3" d="M174.69,69.68s8.61,30.11-3,52.31c0,0-17.72-34.33-38.07-36.93,0,0,8.27-14.72,8.14-24.55C141.74,60.51,146.45,66.38,174.69,69.68Z"/><path class="cls-4" d="M125.71,104.74s-1.19,8.06-1.89,14.3,1.43,10,1.43,10,1,64.7-38.78,86.73c0,0-27.4,10.87-56.45-46.28,0,0-22.39-1.17-26.41-21.82S0,124.39,0,124.39s.11-5.51,7.81-4.44,4.75,1,4.75,1-1.74-9.13-2.3-14c0,0,45-25.72,80.14-21.14S125.71,104.74,125.71,104.74Z"/><path class="cls-2" d="M11,111.84s10.18-4,12.89,8.41a158,158,0,0,1,3.27,20.95l2.21.05s-5.27-32,3.16-37.43S47.82,97.25,49,97.28s4.79-6.91,4.79-6.91L11.09,105.62Z"/><path class="cls-5" d="M70.39,162.85c19.7,7.24,25.31-3.92,25.69-11s-7.69-8-10.08-11.19,2.83-6.83,2.83-6.83"/><path class="cls-3" d="M125.76,102.17S97.87,61.58,10.27,107c0,0-15.34-101.36,61.31-93.28,0,0,21.82-6.94,36.44,16.5S126.18,80.13,125.76,102.17Z"/><path class="cls-6" d="M15.73,127.81s-7.84-6.07-9.8-2.89,2,29.15,5,31.6,15,7.62,13.33,5C2.87,128.38,15.73,127.81,15.73,127.81Z"/><path class="cls-7" d="M107.51,31.57S81.62,65.64,90,81.32c0,0,3.26,4.89,11.92,4.77,0,0-9.62-3.68-2.85-32.45Z"/><path class="cls-3" d="M127.12,30.53s.16-8.08-7.58-6.76S99.49,34.05,95.58,66s25.35,19.59,25,18.11,6.76,11.52,13.19,2.09,10.93-33.6,9.35-47.23S127.12,30.53,127.12,30.53Z"/><path class="cls-3" d="M133.86,29.49S147.93-.68,167,.05s22.91,41.36,22.91,41.36,5.17,27.9-9.36,28.55-33.66-3.4-38.66-8.37c0,0,4.47-23.84-3.12-30.6Z"/><path class="cls-8" d="M140.09,32.46s30.2-30.55,42.21-19.75c0,0-5.82-18-23.36-11.18a69.14,69.14,0,0,0-25.08,28S139.28,30.48,140.09,32.46Z"/><path class="cls-8" d="M42,17.1S10.22,34.77,22.34,100.55L10.27,107S-.51,37.27,42,17.1Z"/><polygon class="cls-2" points="70.28 113.76 48.6 123.41 47.09 120.02 67.81 108.21 70.28 113.76"/><polygon class="cls-2" points="89.5 116.7 111.18 126.34 112.69 122.96 91.97 111.15 89.5 116.7"/><path class="cls-5" d="M59.64,181a41.42,41.42,0,0,1,43.19,1.51"/><path class="cls-9" d="M74.28,189s3.32,7.76,11.82,6.86S95,188.11,95,188.11,82.6,193.83,74.28,189Z"/><path class="cls-2" d="M72.79,187.89a25.14,25.14,0,0,0,3,1c.5.15,1,.27,1.5.41l1.52.31a29.36,29.36,0,0,0,6.13.47,26,26,0,0,0,6.07-.84,34.47,34.47,0,0,0,5.85-2.12c-.44.3-.88.58-1.33.85a11.67,11.67,0,0,1-1.37.8A22.83,22.83,0,0,1,91.19,190a21.56,21.56,0,0,1-3.09.8c-.52.1-1,.13-1.58.2a12.17,12.17,0,0,1-1.6.1,22,22,0,0,1-6.32-.73A19.64,19.64,0,0,1,72.79,187.89Z"/></g></g></svg>