<svg xmlns="http://www.w3.org/2000/svg" xmlns:xlink="http://www.w3.org/1999/xlink" viewBox="0 0 177.8 182.01"><defs><style>.cls-1{isolation:isolate;}.cls-2{fill:#371d10;}.cls-3{fill:#e20613;}.cls-4{opacity:0.66;fill:url(#linear-gradient);}.cls-13,.cls-14,.cls-15,.cls-4{mix-blend-mode:multiply;}.cls-5{fill:#302051;}.cls-6{fill:#b1980f;}.cls-7{fill:#c9b100;}.cls-8{fill:#ffeb87;}.cls-9{fill:#fff;stroke:#1d1d1b;stroke-miterlimit:10;}.cls-10{fill:#ffec00;}.cls-11{fill:#063;}.cls-12{fill:#dd7db0;}.cls-13,.cls-15,.cls-16{fill:#957c16;}.cls-13{opacity:0.36;}.cls-14{opacity:0.25;fill:url(#linear-gradient-2);}.cls-15{opacity:0.31;}.cls-17{fill:#fceb76;}.cls-18{fill:#925f36;}.cls-19{fill:#47ae5f;}</style><linearGradient id="linear-gradient" x1="0.75" y1="6.18" x2="124.55" y2="6.18" gradientUnits="userSpaceOnUse"><stop offset="0" stop-color="#fff"/><stop offset="0.18" stop-color="#fdfcfd"/><stop offset="0.32" stop-color="#f6f2f8"/><stop offset="0.45" stop-color="#ebe2ee"/><stop offset="0.56" stop-color="#dacbe1"/><stop offset="0.68" stop-color="#c5add0"/><stop offset="0.78" stop-color="#ac88bb"/><stop offset="0.89" stop-color="#8d5ca2"/><stop offset="0.99" stop-color="#6b2b86"/><stop offset="1" stop-color="#662482"/></linearGradient><linearGradient id="linear-gradient-2" x1="62.29" y1="29.89" x2="62.29" y2="11.57" gradientUnits="userSpaceOnUse"><stop offset="0" stop-color="#fff"/><stop offset="0.11" stop-color="#e1e1e1"/><stop offset="0.44" stop-color="#8e8e8d"/><stop offset="0.7" stop-color="#51514f"/><stop offset="0.9" stop-color="#2b2b29"/><stop offset="1" stop-color="#1d1d1b"/></linearGradient></defs><title>Asset 2</title><g class="cls-1"><g id="Layer_2" data-name="Layer 2"><g id="Layer_1-2" data-name="Layer 1"><polygon id="_Path_" data-name="&lt;Path&gt;" class="cls-2" points="0.15 9.28 6.42 14.73 118.63 14.73 123.95 9.28 0.15 9.28"/><rect id="_Rectangle_" data-name="&lt;Rectangle&gt;" class="cls-3" x="0.15" y="2.93" width="123.8" height="6.35"/><rect id="_Rectangle_2" data-name="&lt;Rectangle&gt;" class="cls-4" x="0.75" y="3" width="123.8" height="6.35"/><rect id="_Rectangle_3" data-name="&lt;Rectangle&gt;" class="cls-5" x="13.14" y="43.96" width="98.62" height="49.7"/><polygon id="_Path_2" data-name="&lt;Path&gt;" class="cls-6" points="62.54 43.96 111.77 43.94 119.37 11.57 62.53 11.59 62.54 43.96"/><polygon id="_Path_3" data-name="&lt;Path&gt;" class="cls-7" points="5.69 11.61 13.15 43.98 62.54 43.96 62.53 11.59 5.69 11.61"/><rect id="_Path_4" data-name="&lt;Path&gt;" class="cls-8" x="5.69" y="9.29" width="56.84" height="2.31"/><rect id="_Path_5" data-name="&lt;Path&gt;" class="cls-8" x="62.53" y="9.27" width="56.84" height="2.31"/><rect id="_Rectangle_4" data-name="&lt;Rectangle&gt;" class="cls-9" x="62.45" y="93.65" width="2.03" height="82.63"/><path id="_Path_6" data-name="&lt;Path&gt;" d="M79.9,2h0A1.13,1.13,0,0,0,78.75.89,1.14,1.14,0,0,0,77.63,2h0a1.41,1.41,0,0,1-.6,1.1h3.51A1.44,1.44,0,0,1,79.9,2Z"/><path id="_Path_7" data-name="&lt;Path&gt;" d="M85.53,2.57h.19a.39.39,0,0,1-.11-.06Z"/><path id="_Path_8" data-name="&lt;Path&gt;" d="M74.76,2h0a1.13,1.13,0,0,0-2.26,0h0a1.42,1.42,0,0,1-.64,1.09h3.44l0,0A1.43,1.43,0,0,1,74.76,2Z"/><path id="_Path_9" data-name="&lt;Path&gt;" d="M69.6,2h0a1.13,1.13,0,1,0-2.26,0h0a1.47,1.47,0,0,1-.63,1.12h3.44l0,0A1.45,1.45,0,0,1,69.6,2Z"/><path id="_Path_10" data-name="&lt;Path&gt;" d="M64.46,2h0A1.14,1.14,0,0,0,63.32.89,1.12,1.12,0,0,0,62.2,2h0a1.44,1.44,0,0,1-.58,1.16h3.46A1.44,1.44,0,0,1,64.46,2Z"/><path id="_Path_11" data-name="&lt;Path&gt;" d="M85.45,2.93A1.38,1.38,0,0,1,85.06,2h0A1.14,1.14,0,0,0,83.91.89,1.12,1.12,0,0,0,82.79,2h0a1.41,1.41,0,0,1-.62,1.1h3.35L85.38,3Z"/><path id="_Path_12" data-name="&lt;Path&gt;" d="M59.34,2.05h0a1.13,1.13,0,1,0-2.26,0h0a1.44,1.44,0,0,1-.56,1.06h3.42A1.45,1.45,0,0,1,59.34,2.05Z"/><path id="_Path_13" data-name="&lt;Path&gt;" d="M49,2h0a1.13,1.13,0,0,0-1.85-.86l-.25.29a1.16,1.16,0,0,0-.16.59h0a1.43,1.43,0,0,1-.59,1.08h3.49A1.42,1.42,0,0,1,49,2Z"/><path id="_Path_14" data-name="&lt;Path&gt;" d="M54.2,2.06h0A1.13,1.13,0,0,0,53.05.94a1,1,0,0,0-.6.19L52,1.59a1.14,1.14,0,0,0-.11.49h0a1.43,1.43,0,0,1-.59,1h3.47A1.43,1.43,0,0,1,54.2,2.06Z"/><path id="_Path_15" data-name="&lt;Path&gt;" d="M38.75,2h0a1.13,1.13,0,0,0-2.26,0h0a1.41,1.41,0,0,1-.61,1.1h3.52A1.44,1.44,0,0,1,38.75,2Z"/><path id="_Path_16" data-name="&lt;Path&gt;" d="M43.9,2h0a1.13,1.13,0,1,0-2.26,0h0A1.43,1.43,0,0,1,41,3.13h3.52A1.4,1.4,0,0,1,43.9,2Z"/><path id="_Path_17" data-name="&lt;Path&gt;" d="M86.5,2.51a1.13,1.13,0,0,0,1.12-1.13h0a1.47,1.47,0,0,1,.12-.52L85.86,2.32A1.07,1.07,0,0,0,86.5,2.51Z"/><path id="_Path_18" data-name="&lt;Path&gt;" d="M76.2,2.53a1.12,1.12,0,0,0,1.12-1.14h0a1.39,1.39,0,0,1,.16-.57L75.72,2.43A1.29,1.29,0,0,0,76.2,2.53Z"/><path id="_Path_19" data-name="&lt;Path&gt;" d="M81.34,2.52a1.14,1.14,0,0,0,1.12-1.14h0A1.51,1.51,0,0,1,82.56,1L81,2.46A1.09,1.09,0,0,0,81.34,2.52Z"/><path id="_Path_20" data-name="&lt;Path&gt;" d="M61.92,1.15,60.45,2.5a1.14,1.14,0,0,0,.33,0A1.13,1.13,0,0,0,61.9,1.47h0A1.66,1.66,0,0,1,61.92,1.15Z"/><path id="_Path_21" data-name="&lt;Path&gt;" d="M71,2.5a1.13,1.13,0,0,0,1.13-1.14h0a1.3,1.3,0,0,1,.14-.52L70.61,2.42A1.26,1.26,0,0,0,71,2.5Z"/><path id="_Path_22" data-name="&lt;Path&gt;" d="M56.76,1.43h0v0l-1,1.14A1.12,1.12,0,0,0,56.76,1.43Z"/><path id="_Path_23" data-name="&lt;Path&gt;" d="M51.59,1.55l-.81.94A1.13,1.13,0,0,0,51.59,1.55Z"/><path id="_Path_24" data-name="&lt;Path&gt;" d="M46.46,1.45l-.93,1.08A1.12,1.12,0,0,0,46.46,1.45Z"/><polygon id="_Path_25" data-name="&lt;Path&gt;" points="85.5 2.59 85.53 2.57 85.49 2.57 85.5 2.59"/><path id="_Path_26" data-name="&lt;Path&gt;" d="M69.78,2.9l.13.15.46-.41a1.52,1.52,0,0,0,.68.17,1.38,1.38,0,0,0,.77-.24H70.14Z"/><path id="_Path_27" data-name="&lt;Path&gt;" d="M86.5,2.82a1.35,1.35,0,0,0,.79-.25H85.72A1.39,1.39,0,0,0,86.5,2.82Z"/><path id="_Path_28" data-name="&lt;Path&gt;" d="M80.57,2.61l.11.12,0,0a1.4,1.4,0,0,0,.61.14,1.44,1.44,0,0,0,.8-.26H80.53Z"/><path id="_Path_29" data-name="&lt;Path&gt;" d="M75.25,2.58l.14.15.09-.08a1.49,1.49,0,0,0,.72.19A1.37,1.37,0,0,0,77,2.57H75.25Z"/><path id="_Path_30" data-name="&lt;Path&gt;" d="M65.91,2.82a1.37,1.37,0,0,0,.79-.25H65.09A1.42,1.42,0,0,0,65.91,2.82Z"/><path id="_Path_31" data-name="&lt;Path&gt;" d="M60,2.63l-.18.16.14.15.23-.21a1.31,1.31,0,0,0,.59.13,1.41,1.41,0,0,0,.85-.29H59.92S60,2.62,60,2.63Z"/><path id="_Path_32" data-name="&lt;Path&gt;" d="M45,2.81l0,0,.15.13.13-.14h.1a1.41,1.41,0,0,0,.83-.29H44.51A1.29,1.29,0,0,0,45,2.81Z"/><path id="_Path_33" data-name="&lt;Path&gt;" d="M50.22,2.82l0,0,.15.13.13-.15h0a1.41,1.41,0,0,0,.82-.27H49.67A1.32,1.32,0,0,0,50.22,2.82Z"/><path id="_Path_34" data-name="&lt;Path&gt;" d="M55.28,2.82,55.14,3l.15.14.22-.26h.13a1.36,1.36,0,0,0,.86-.3H54.78A1.31,1.31,0,0,0,55.28,2.82Z"/><path id="_Path_35" data-name="&lt;Path&gt;" d="M40.19,2.82a1.38,1.38,0,0,0,.8-.25H39.38A1.34,1.34,0,0,0,40.19,2.82Z"/><path id="_Compound_Path_" data-name="&lt;Compound Path&gt;" d="M124,1.42h-.31a1.13,1.13,0,1,1-2.26,0h0A1.44,1.44,0,0,0,119.93.06a1.31,1.31,0,0,0-.59.14l0-.05-2.72,2.1a1.12,1.12,0,0,1-.35-.8h0A1.45,1.45,0,0,0,114.79.07a1.53,1.53,0,0,0-.68.19l0,0-2.62,2a1.09,1.09,0,0,1-.37-.82h0A1.44,1.44,0,0,0,109.64,0a1.46,1.46,0,0,0-1.2.67L106.38,2.3a1.09,1.09,0,0,1-.43-.87h0A1.43,1.43,0,0,0,104.5.06a1.4,1.4,0,0,0-1.15.59l-2.11,1.63a1.13,1.13,0,0,1-.45-.88h0A1.45,1.45,0,0,0,99.34,0a1.43,1.43,0,0,0-1.21.71l-2,1.56a1.13,1.13,0,0,1-.45-.88h0A1.44,1.44,0,0,0,94.2,0a1.45,1.45,0,0,0-.62.15l0,0L90.88,2.21a1.12,1.12,0,0,1-.38-.83h0A1.44,1.44,0,0,0,89.05,0a1.62,1.62,0,0,0-.69.19l0,0-2.64,2a1.16,1.16,0,0,1-.33-.8h0a1.43,1.43,0,0,0-2.1-1.2l0,0L80.78,2.37a1.12,1.12,0,0,1-.58-1h0A1.44,1.44,0,0,0,78.75,0,1.49,1.49,0,0,0,78,.24L77.91.15,75.54,2.32a1.1,1.1,0,0,1-.48-.91h0A1.42,1.42,0,0,0,73.61,0a1.4,1.4,0,0,0-1.09.53l-.08-.1-2,1.85a1.12,1.12,0,0,1-.51-.94h0a1.43,1.43,0,0,0-2.86,0h0A1.13,1.13,0,0,1,65.9,2.51a1.11,1.11,0,0,1-1.13-1.12h0A1.44,1.44,0,0,0,62.1.71l-1.86,1.7a1.12,1.12,0,0,1-.6-1h0A1.42,1.42,0,0,0,56.87,1L55.51,2.55a1.13,1.13,0,0,1-1-1.11h0a1.43,1.43,0,0,0-2.81-.32l-1.21,1.4a1.12,1.12,0,0,1-1.12-1.12h0A1.43,1.43,0,0,0,47.9,0a1.41,1.41,0,0,0-1.35,1l-1.3,1.5a1.12,1.12,0,0,1-1-1.11h0a1.43,1.43,0,0,0-2.86-.05h0a1.13,1.13,0,1,1-2.26,0h0a1.44,1.44,0,0,0-2.87,0h0a1.11,1.11,0,0,1-1,1.12L33.75.82a1.56,1.56,0,0,0-.46-.53h0A1.48,1.48,0,0,0,32.46,0a1.43,1.43,0,0,0-1.41,1.33h0A1.14,1.14,0,0,1,29.9,2.5h-.09L28.73,1.25a1.42,1.42,0,0,0-1-1.19l0,0,0,0a1.86,1.86,0,0,0-.33,0,1.43,1.43,0,0,0-1.42,1.37h0a1.15,1.15,0,0,1-.67,1L23.46.81A1.46,1.46,0,0,0,22.17,0a1.44,1.44,0,0,0-1.42,1.37h0a1.13,1.13,0,0,1-.66,1L18.29.79a1.43,1.43,0,0,0-2.7.6h0a1.12,1.12,0,0,1-.68,1L13.17.85a1.45,1.45,0,0,0-.79-.73l0,0,0,0A1.33,1.33,0,0,0,11.87,0a1.43,1.43,0,0,0-1.41,1.33h0a1.13,1.13,0,0,1-.41.87L7.87.57A1.57,1.57,0,0,0,7.26.1L7.17,0l0,0A1.48,1.48,0,0,0,6.72,0,1.43,1.43,0,0,0,5.3,1.37h0a1.14,1.14,0,0,1-.43.89L2.77.64A1.44,1.44,0,0,0,2.07.1l0,0H2A1.33,1.33,0,0,0,1.58,0,1.44,1.44,0,0,0,.15,1.46h0L0,2.57H.21L.39,1.46H.46A1.13,1.13,0,0,1,1.58.32,1.14,1.14,0,0,1,2.72,1.44h0a1.44,1.44,0,0,0,.64,1.13H5a1.48,1.48,0,0,0,.63-1.12h0A1.12,1.12,0,0,1,6.72.31,1.14,1.14,0,0,1,7.86,1.43h0a1.45,1.45,0,0,0,.65,1.14h1.57a1.44,1.44,0,0,0,.64-1.09h0A1.13,1.13,0,0,1,12.61.61l.09.08a1.11,1.11,0,0,1,.31.77h0a1.44,1.44,0,0,0,.61,1.11h1.64a1.44,1.44,0,0,0,.61-1.11h0a1.13,1.13,0,0,1,2.26,0h0a1.44,1.44,0,0,0,.62,1.12h1.6A1.41,1.41,0,0,0,21,1.46h0a1.13,1.13,0,0,1,2.26,0h0A1.47,1.47,0,0,0,24,2.57h1.57a1.41,1.41,0,0,0,.66-1.12h0A1.12,1.12,0,0,1,27.31.31a1.29,1.29,0,0,1,.4.07l.71.82a.91.91,0,0,1,0,.23h0a1.48,1.48,0,0,0,.65,1.14h1.57a1.44,1.44,0,0,0,.64-1.09h0A1.14,1.14,0,0,1,32.47.34,1.12,1.12,0,0,1,33.6,1.46h0a1.44,1.44,0,0,0,.61,1.11h1.64a1.44,1.44,0,0,0,.61-1.1h0a1.13,1.13,0,0,1,2.26,0h0a1.45,1.45,0,0,0,.63,1.12H41a1.45,1.45,0,0,0,.62-1.07h0A1.12,1.12,0,0,1,42.76.36,1.14,1.14,0,0,1,43.9,1.48h0a1.42,1.42,0,0,0,.61,1.09h1.67a1.43,1.43,0,0,0,.59-1.09h0A1.15,1.15,0,0,1,46.94.9l.25-.29A1.13,1.13,0,0,1,49,1.47h0a1.42,1.42,0,0,0,.63,1.1h1.64a1.43,1.43,0,0,0,.59-1h0A1.14,1.14,0,0,1,52,1l.41-.47a1.13,1.13,0,0,1,1.74.94h0a1.43,1.43,0,0,0,.58,1.07H56.5a1.44,1.44,0,0,0,.56-1.07h0a1.13,1.13,0,1,1,2.26,0h0a1.45,1.45,0,0,0,.58,1.08h1.71a1.44,1.44,0,0,0,.58-1.16h0A1.13,1.13,0,0,1,63.32.32a1.14,1.14,0,0,1,1.14,1.13h0a1.45,1.45,0,0,0,.63,1.12H66.7a1.47,1.47,0,0,0,.63-1.12h0a1.13,1.13,0,1,1,2.26,0h0a1.43,1.43,0,0,0,.59,1.09l0,0h1.68a1.42,1.42,0,0,0,.64-1.09h0A1.14,1.14,0,0,1,73.61.34a1.13,1.13,0,0,1,1.14,1.12h0a1.43,1.43,0,0,0,.55,1.07l0,0H77a1.43,1.43,0,0,0,.6-1.1h0A1.14,1.14,0,0,1,78.75.33a1.13,1.13,0,0,1,1.14,1.12h0a1.44,1.44,0,0,0,.63,1.12h1.61a1.42,1.42,0,0,0,.62-1.11h0a1.13,1.13,0,0,1,2.26,0h0a1.38,1.38,0,0,0,.39.92l-.07.06.11.14h0l.08-.06a.39.39,0,0,0,.11.06h1.57a1.44,1.44,0,0,0,.63-1.12h0a1.13,1.13,0,1,1,2.26,0h0a1.43,1.43,0,0,0,.43,1l0,0,.11.14h0l0,0,.07,0h1.55a1.42,1.42,0,0,0,.64-1.09h0A1.14,1.14,0,0,1,94.21.34a1.13,1.13,0,0,1,1.13,1.12h0a1.47,1.47,0,0,0,.5,1h0l.06.07h1.72a1.43,1.43,0,0,0,.6-1.1h0a1.14,1.14,0,0,1,.43-.89l.09-.06a1.05,1.05,0,0,1,.61-.19,1.13,1.13,0,0,1,1.13,1.12h0a1.43,1.43,0,0,0,.5,1h0l.07.09h1.69a1.45,1.45,0,0,0,.62-1.07h0a1.13,1.13,0,0,1,2.26,0h0a1.44,1.44,0,0,0,.56,1.07v0h1.72a1.45,1.45,0,0,0,.58-1.08h0A1.13,1.13,0,0,1,109.64.35a1.14,1.14,0,0,1,1.14,1.12h0a1.45,1.45,0,0,0,.43,1l-.08.07.05.07h1.87a1.43,1.43,0,0,0,.59-1h0A1.14,1.14,0,0,1,114.79.38a1.13,1.13,0,0,1,1.14,1.12h0a1.45,1.45,0,0,0,.48,1l0,.06h.91a1.14,1.14,0,0,1-.63-.19L118.63.93a1.41,1.41,0,0,0-.12.5h0a1.13,1.13,0,0,1-1.12,1.14h.87a1.43,1.43,0,0,0,.55-1.06h0a1.13,1.13,0,0,1,2.26,0h0a1.44,1.44,0,0,0,.57,1.08h1.73A1.43,1.43,0,0,0,124,1.42ZM4.16,2.51A1.13,1.13,0,0,1,3,1.39H3A1.86,1.86,0,0,0,3,1.05L4.68,2.37A1,1,0,0,1,4.16,2.51Zm5.14,0A1.13,1.13,0,0,1,8.17,1.38h0A2.14,2.14,0,0,0,8.09,1L9.84,2.35A1.09,1.09,0,0,1,9.3,2.5Zm5.16,0a1.14,1.14,0,0,1-1.14-1.12h0a1.1,1.1,0,0,0,0-.18L14.68,2.5A.83.83,0,0,1,14.46,2.53Zm5.14,0a1.14,1.14,0,0,1-1.14-1.13h0a1.23,1.23,0,0,0,0-.19l1.41,1.29Zm5.16,0a1.13,1.13,0,0,1-1.14-1.12h0a1.13,1.13,0,0,0,0-.18L25,2.48A.83.83,0,0,1,24.76,2.51Zm4-.88.69.79A1.14,1.14,0,0,1,28.79,1.63Zm5.12-.22h0a.52.52,0,0,1,0-.11L35,2.52A1.13,1.13,0,0,1,33.91,1.41ZM45.53,2.53l.93-1.08A1.12,1.12,0,0,1,45.53,2.53Zm5.25,0,.81-.94A1.13,1.13,0,0,1,50.78,2.49Zm6-1.06h0a1.12,1.12,0,0,1-1,1.12l1-1.14Zm5.13,0a1.13,1.13,0,0,1-1.12,1.08,1.14,1.14,0,0,1-.33,0l1.47-1.35a1.66,1.66,0,0,0,0,.32h0Zm10.3-.11h0A1.13,1.13,0,0,1,71,2.5a1.26,1.26,0,0,1-.43-.08L72.34.84A1.3,1.3,0,0,0,72.2,1.36Zm5.13,0h0A1.12,1.12,0,0,1,76.2,2.53a1.29,1.29,0,0,1-.48-.1L77.49.82A1.39,1.39,0,0,0,77.33,1.39Zm5.16,0h0a1.14,1.14,0,0,1-1.12,1.14A1.09,1.09,0,0,1,81,2.46L82.56,1A1.51,1.51,0,0,0,82.49,1.38Zm5.14,0h0A1.13,1.13,0,0,1,86.5,2.51a1.07,1.07,0,0,1-.64-.19L87.75.86A1.47,1.47,0,0,0,87.63,1.38Zm5.16,0h0A1.13,1.13,0,0,1,91.64,2.5a1.16,1.16,0,0,1-.59-.16L92.91.9A1.25,1.25,0,0,0,92.79,1.36Zm5.13,0h0a1.12,1.12,0,0,1-1.63,1L98,1.11A1.37,1.37,0,0,0,97.92,1.39Zm5.16,0h0a1.14,1.14,0,0,1-1.12,1.14,1.27,1.27,0,0,1-.51-.12l1.72-1.33A1.55,1.55,0,0,0,103.08,1.38Zm5.14,0h0a1.13,1.13,0,0,1-1.13,1.14,1.18,1.18,0,0,1-.52-.13l1.71-1.31A1,1,0,0,0,108.22,1.41Zm5.16,0h0a1.14,1.14,0,0,1-1.13,1.14,1.1,1.1,0,0,1-.59-.17L113.5.93A1.21,1.21,0,0,0,113.38,1.4Z"/><rect id="_Path_36" data-name="&lt;Path&gt;" class="cls-10" x="13.14" y="93.65" width="49.31" height="29.44"/><rect id="_Path_37" data-name="&lt;Path&gt;" class="cls-11" x="13.14" y="123.1" width="49.31" height="53.19"/><polygon id="_Path_38" data-name="&lt;Path&gt;" class="cls-11" points="62.45 123.09 62.45 176.29 90.94 176.29 112.22 176.29 112.22 123.09 62.45 123.09"/><rect id="_Path_39" data-name="&lt;Path&gt;" class="cls-10" x="62.45" y="93.65" width="50.08" height="29.92"/><g id="_Group_" data-name="&lt;Group&gt;"><polygon class="cls-12" points="1.23 8.04 1.29 4.32 1.3 3.62 1.98 3.63 43.76 4.32 1.98 5.01 2.67 4.32 2.73 8.04 1.23 8.04"/></g><g id="_Group_2" data-name="&lt;Group&gt;"><polygon class="cls-12" points="122.34 4.32 122.28 8.04 122.27 8.74 121.59 8.73 79.81 8.04 121.59 7.35 120.9 8.04 120.84 4.32 122.34 4.32"/></g><polygon id="_Path_40" data-name="&lt;Path&gt;" class="cls-13" points="123.95 2.92 0.75 9.36 123.95 9.28 123.95 2.92"/><polygon id="_Path_41" data-name="&lt;Path&gt;" class="cls-14" points="5.45 11.64 119.13 11.57 116.51 29.89 10.85 29.89 5.45 11.64"/><polygon id="_Path_42" data-name="&lt;Path&gt;" class="cls-15" points="108.67 43.96 15.9 93.65 108.67 93.65 108.67 43.96"/><rect id="_Rectangle_5" data-name="&lt;Rectangle&gt;" class="cls-16" x="14.52" y="123.21" width="97.24" height="0.68"/><g id="_Group_3" data-name="&lt;Group&gt;"><polygon class="cls-17" points="14.27 115.15 14.7 98.25 14.71 97.5 15.44 97.52 63.36 98.25 15.44 98.99 16.17 98.26 16.27 115.17 14.27 115.15"/></g><polygon id="_Path_43" data-name="&lt;Path&gt;" class="cls-15" points="111.66 43.97 13.07 43.98 103.59 11.6 119.37 11.6 111.66 43.97"/><rect id="_Rectangle_6" data-name="&lt;Rectangle&gt;" class="cls-18" x="70.1" y="152.15" width="107.71" height="2.79"/><rect id="_Rectangle_7" data-name="&lt;Rectangle&gt;" class="cls-18" x="78.77" y="154.94" width="3.37" height="27.07"/><rect id="_Rectangle_8" data-name="&lt;Rectangle&gt;" class="cls-18" x="165.65" y="154.94" width="3.37" height="27.07"/><rect class="cls-19" x="27.52" y="123.86" width="85.01" height="0.51"/></g></g></g></svg>