<svg xmlns="http://www.w3.org/2000/svg" viewBox="0 0 311.32 119.99"><defs><style>.cls-1{fill:#1a177a;}.cls-2{fill:#999;}.cls-3{fill:#f2f2f2;}.cls-4{fill:#fcee21;}</style></defs><title>Asset 4</title><g id="Layer_2" data-name="Layer 2"><g id="Layer_1-2" data-name="Layer 1"><path class="cls-1" d="M306.27,104.46H75.21l-62.53-3.63a9.42,9.42,0,0,1-8.88-9.4v-.94h0A5.74,5.74,0,0,1,0,85.08V62.2a5.74,5.74,0,0,1,3.8-5.41h0V46.27A12.52,12.52,0,0,1,15.45,33.78l33-2.3L70.53,13.84A63.28,63.28,0,0,1,110,0h45.35a69.85,69.85,0,0,1,47.09,18.26l17.89,16.33,28.69,3.89q14.68,2,29.14,5.25l24,5.41a11.69,11.69,0,0,1,9.13,11.41l-1.73,25.39a7.15,7.15,0,0,1-.62,2.92l-.39.9a1.56,1.56,0,0,0,.2,1.58l.77,1a4.91,4.91,0,0,1,1.07,3.08v4.72A4.34,4.34,0,0,1,306.27,104.46Z"/><circle class="cls-2" cx="242.31" cy="96.81" r="23.18"/><circle class="cls-3" cx="242.31" cy="96.81" r="13.82"/><circle class="cls-2" cx="73.58" cy="96.81" r="23.18"/><circle class="cls-3" cx="73.58" cy="96.81" r="13.82"/><path class="cls-3" d="M305.39,58.31h-9.23c-1.73,0-3.13-1.11-3.13-2.48V54c0-1.42,1.51-2.55,3.3-2.47l3.35.14a8.62,8.62,0,0,1,6.75,3.4l.66,1C307.78,57.08,306.85,58.31,305.39,58.31Z"/><path class="cls-3" d="M210,35.08H143.8L142.05,9.25A3.06,3.06,0,0,1,145.15,6l17.71.26a51,51,0,0,1,32.56,14.5Z"/><path class="cls-3" d="M76.72,35.08h56.92l1.75-25.83A3.06,3.06,0,0,0,132.29,6l-17.71.26A51,51,0,0,0,82,20.74l-8,7.83A3.8,3.8,0,0,0,76.72,35.08Z"/><rect class="cls-4" x="146.86" y="49.14" width="15.24" height="3.34" rx="1.24" ry="1.24"/><rect class="cls-4" x="113.75" y="49.14" width="15.24" height="3.34" rx="1.24" ry="1.24"/></g></g></svg>