<svg xmlns="http://www.w3.org/2000/svg" viewBox="0 0 126.83 164.06"><defs><style>.cls-1{isolation:isolate;}.cls-2{fill:#422918;opacity:0.19;}.cls-12,.cls-13,.cls-14,.cls-15,.cls-2{mix-blend-mode:multiply;}.cls-3{fill:#883e21;}.cls-4{fill:#a5492d;}.cls-5{fill:#7a331e;}.cls-6{fill:#af6c3f;}.cls-7{fill:#c07541;}.cls-8{fill:#ffec00;}.cls-13,.cls-14,.cls-15,.cls-9{fill:#c09f12;}.cls-10{fill:#c9b100;}.cls-11{fill:#ffeb87;}.cls-12{fill:#957c16;}.cls-12,.cls-13{opacity:0.31;}.cls-14{opacity:0.27;}.cls-15{opacity:0.6;}.cls-16{fill:#ececec;}.cls-17{fill:#c6c6c5;}.cls-18{fill:#dcbd05;}</style></defs><title>Asset 1</title><g class="cls-1"><g id="Layer_2" data-name="Layer 2"><g id="Layer_1-2" data-name="Layer 1"><polygon class="cls-2" points="114.81 158.76 79.64 158.11 79.64 152.88 125.3 153.59 114.81 158.76"/><polygon class="cls-2" points="72.68 164.06 24.35 161.24 44.76 159.97 71.03 160.77 89.87 158.66 72.68 164.06"/><polygon id="_Path_" data-name="&lt;Path&gt;" class="cls-3" points="114.81 127.08 114.81 158.76 120.95 156.15 121.96 148.75 123.89 154.25 126.83 153.45 126.83 128.71 120.95 126.82 114.81 127.08"/><polygon id="_Path_2" data-name="&lt;Path&gt;" class="cls-4" points="126.83 131 114.81 130.19 114.81 125.3 126.83 127.19 126.83 131"/><polygon id="_Path_3" data-name="&lt;Path&gt;" class="cls-5" points="114.81 131.05 49.11 131.68 49.11 127.51 114.81 126.16 114.81 131.05"/><polygon id="_Path_4" data-name="&lt;Path&gt;" class="cls-6" points="114.76 158.7 112.71 157.85 112.71 129.82 114.76 129.82 114.76 158.7"/><polygon id="_Path_5" data-name="&lt;Path&gt;" class="cls-7" points="114.81 130.19 49.11 130.82 49.11 126.65 114.81 125.3 114.81 130.19"/><polygon id="_Path_6" data-name="&lt;Path&gt;" class="cls-8" points="73.18 159.97 24.35 156.98 24.35 110.74 72.68 110.74 73.18 159.97"/><polygon id="_Path_7" data-name="&lt;Path&gt;" class="cls-9" points="73.18 159.97 89.13 155.27 89.13 107.21 72.68 110.74 73.18 159.97"/><polygon id="_Path_8" data-name="&lt;Path&gt;" class="cls-10" points="90.49 112.09 79.64 110.87 79.64 103.55 90.49 106.38 90.49 112.09"/><polygon id="_Path_9" data-name="&lt;Path&gt;" class="cls-11" points="72.68 164.06 69.34 163.83 69.34 111.03 72.68 110.82 72.68 164.06"/><polygon id="_Path_10" data-name="&lt;Path&gt;" class="cls-10" points="72.77 164.06 76.12 163.13 76.12 111.03 72.77 110.82 72.77 164.06"/><polygon id="_Path_11" data-name="&lt;Path&gt;" class="cls-11" points="87.9 159.08 85.38 158.88 85.38 111.81 87.9 112.09 87.9 159.08"/><polygon id="_Path_12" data-name="&lt;Path&gt;" class="cls-9" points="87.97 159.08 89.87 158.66 89.87 112.05 87.97 112.09 87.97 159.08"/><polygon id="_Path_13" data-name="&lt;Path&gt;" class="cls-11" points="27.69 161.45 24.35 161.24 24.35 111.52 27.69 111.33 27.69 161.45"/><polygon id="_Path_14" data-name="&lt;Path&gt;" class="cls-10" points="27.78 161.45 29.45 161.24 29.45 111.52 27.78 111.33 27.78 161.45"/><polygon id="_Path_15" data-name="&lt;Path&gt;" class="cls-8" points="79.64 110.87 20.28 111.81 20.28 105.56 79.64 103.55 79.64 110.87"/><polygon id="_Path_16" data-name="&lt;Path&gt;" class="cls-12" points="62.2 111.21 37.72 111.21 37.72 104.88 62.2 104.75 62.2 111.21"/><polygon id="_Path_17" data-name="&lt;Path&gt;" class="cls-12" points="63.73 148.65 39.25 148.65 39.04 111.58 63.73 111.21 63.73 148.65"/><polygon id="_Path_18" data-name="&lt;Path&gt;" class="cls-13" points="76.12 111.03 76.12 116.1 85.38 116.87 87.97 115.33 89.67 115.59 89.87 112.05 79.64 110.87 76.12 111.03"/><polygon id="_Path_19" data-name="&lt;Path&gt;" class="cls-14" points="76.15 114.59 72.77 114.28 72.67 110.98 76.26 111.03 76.15 114.59"/><polygon id="_Path_20" data-name="&lt;Path&gt;" class="cls-15" points="72.77 114.28 24.35 116.42 22.73 111.35 72.67 110.98 72.77 114.28"/><rect id="_Rectangle_" data-name="&lt;Rectangle&gt;" class="cls-16" x="53.14" y="23.73" width="3.34" height="84.08"/><rect id="_Rectangle_2" data-name="&lt;Rectangle&gt;" class="cls-17" x="54.84" y="23.73" width="1.67" height="84.08"/><path id="_Path_21" data-name="&lt;Path&gt;" class="cls-8" d="M56.89,0C25.47,0,0,22.13,0,49.43H113.79C113.79,22.13,88.32,0,56.89,0Z"/><path id="_Path_22" data-name="&lt;Path&gt;" class="cls-18" d="M6.51,40.31a16.77,16.77,0,0,0-.94,4.95V73.4H27.32V45s-.05-4,.37-4.69Z"/><path id="_Path_23" data-name="&lt;Path&gt;" class="cls-18" d="M106.24,39.51a16.66,16.66,0,0,1,.94,4.94V72.59H85.44V44.2s0-4-.38-4.69Z"/></g></g></g></svg>