<svg xmlns="http://www.w3.org/2000/svg" viewBox="0 0 605.59 548"><defs><style>.cls-1,.cls-2{fill:#8a5d3b;}.cls-2,.cls-4,.cls-9{opacity:0.5;}.cls-3{fill:#fcee21;}.cls-4,.cls-5,.cls-6,.cls-8{fill:#ab5826;}.cls-6{opacity:0.8;}.cls-7{fill:#262261;}.cls-8{opacity:0.35;}.cls-10,.cls-9{fill:#754c28;}.cls-10{opacity:0.73;}.cls-11{fill:#3b2314;}.cls-12{fill:#e6e7e8;}.cls-13{fill:#231f20;}.cls-14{fill:none;stroke:#fff;stroke-miterlimit:10;stroke-dasharray:11.86 11.86;}</style></defs><title>Asset 10</title><g id="Layer_2" data-name="Layer 2"><g id="Layer_1-2" data-name="Layer 1"><path class="cls-1" d="M384.69,415.2s10.68-10,2.9-21.69-22.5-6.31-22.5-6.31-30,2.87-80.29,47.65S236.49,478,221.48,482.22s-17.66,1.93-28.72,8.49-28.06,17.51-28.06,17.51-13.54,11-13.94,14.68,3.83,2.86,3.83,2.86-4,6.21,3.62,6.82c0,0-1.1,7.49,5.78,4.69l23.45-15.2s9.41-4.3,10.67-2.91-2.61,3.54-.19,6.88,5.69,1,7.34-1.3,3.24-5.34,11.08-10.85S228,495.42,236,491.55,341.69,441,341.69,441,380.5,421.29,384.69,415.2Z"/><polyline class="cls-1" points="154.59 525.75 170.57 513.57 194.34 500.81"/><polyline class="cls-1" points="158.22 532.58 176.88 517.35 197.96 506.92"/><path class="cls-1" d="M293.54,333.68S342.85,391.36,348,403s20.24,25.69,31.76,16.61,9.63-23.13-11.68-42.23c0,0-28.41-28.26-38.27-53.45Z"/><path class="cls-2" d="M293.2,333.93l36.3-9.73L335,335.46s-22.14.16-33.29,8.46Z"/><path class="cls-3" d="M287.76,342.93s.81,5.73,5.21,7.42,11.39-3.84,11.39-3.84,29.76-19.57,31.78-19.62,1.85-8.94-2.26-11l-4.9,1.42-1.67-.13L312.6,325l-5,6.91-11.29,7.36-2.73.69Z"/><path class="cls-3" d="M227.49,250.18s7.69-46.48,80,1.47l28.18,31.65s5.85,7,4.79,11.34-1.86,15.91-1.86,15.91-6.52,8.58-10.42,7.27c0,0-13.1,4.71-15.13,9.6s-11.32,12.67-17.62,13.85l-5.63,3.17-4.55-2.52-4.3-2.38s-22.79,8.88-33.28,2.48-18.29-13.58-21.34-14-5-7.27-5-7.27-5.71-44.69,2.34-47c0,0,3-2.05,5.28-1C229,272.74,226.77,252.87,227.49,250.18Z"/><path class="cls-4" d="M287.76,342.93s1.22,4.44,2.19,5.13c1.5,1.06,2.94-1.47,2.94-1.47a5.38,5.38,0,0,1,3.25-1.44c2.2-.26,13.23-7.23,16.08-12.79s5.59-9.64,7.4-10.61-3.59,2.09-7.83,7.92c-.49.67-6.42,7.41-9.83,8.83a51.87,51.87,0,0,1-5,2.39l-1.47.38-5.36,3S288,343.67,287.76,342.93Z"/><path class="cls-4" d="M229.5,272.87l10.91,0-6.72-15.15s-3.5-4.54-5.44,2Z"/><path class="cls-5" d="M278,265.31l4.76,32.09s5.16,13.23,6.94,17.15.83,11-.15,15.37-9.27,29.51-9.27,29.51l-4.44-2.09s14.32-33,10.9-42.18-6.46-16.78-6.46-16.78l-5.46-49.47Z"/><path class="cls-1" d="M276.09,454.52s17.56,22,17.56,32.08-21,26.55-21,26.55l-5.52-50.58Z"/><path class="cls-6" d="M147.3,269l2.14,21a6.84,6.84,0,0,1,.42,3.87c-1.92,10.54-10.74,64.88-15.88,67.6-16,8.46-21.2,0-22.09-2.47s-.07-6-.07-6l7.09.87,7.24-4.15s10.54-3.51,12.66-11.49,10.63-43.56,10.63-43.56Z"/><path class="cls-1" d="M158.3,275.86c38,9.05,91.16-1.2,106.55-37.17l5.31-2,.64-2c-7.32-.83-8.35-.6-8.35-.6l-2.57.39c-38-1.1-47.82-10.71-51.92-18.88s5.17-47.16,5.17-47.16l-45.35.6c8.27,20.51,6.12,33.66,4.89,47.12-15.35,21-46.07,23-46.07,23l-.45.4C126.83,250.6,132,269.6,158.3,275.86Z"/><ellipse class="cls-7" cx="186.42" cy="508.38" rx="84.37" ry="39.62"/><path class="cls-8" d="M241,251.85s-11.58,14.7-12.68,18.37a6.8,6.8,0,0,0,1.47,6.34s.73,15.71,1.1,21.22,17,32.77,32.55,33.84c0,0-29.08-4.35-40.37-27.55,0,0-1.36-16-1.31-26.08,0,0-1.35-1.95-.85-6.08a10.65,10.65,0,0,1,3.42-6.51Z"/><path class="cls-3" d="M300,483.36c-21-19.14-34.66-51.74-34.66-51.74-8.94-13-9.89-59.73-7.68-59.69s13.68-4.51,20.79-11.36,12.46-36.51,11.8-40.2-5.6-15.18-5.6-15.18c-.86-12.51-8.45-65.46-9.25-67.13s-8-3.78-8-3.78l-2.16-.17-3.21.09c-15.39,36-68.51,46.22-106.55,37.17C129.18,265.11,124,246.11,123.34,235l-4.23,3.84C71,283,121.73,384.16,124.83,388.39s6.47,8,6,17.26c-5.42,27.34-57.44,83.19-57.44,83.19C130.18,544.8,321,502.5,300,483.36Z"/><path class="cls-9" d="M145.71,234.85s-14.34,44.07,61.63,42.28c0,0-80,15.5-81.19-37.55C126.15,239.58,139.83,236.68,145.71,234.85Z"/><path class="cls-8" d="M160.43,370.64a62,62,0,0,0,30.87,0c16.17-4.41,47.55-10.64,66.4,1.29a71.07,71.07,0,0,0-.93,14.4s-34.38-21.28-63.51-9.91C183,380.44,160.43,370.64,160.43,370.64Z"/><path class="cls-1" d="M8.92,416.94c-3.18,7.14-14,10.23-6.08,19.88S8.08,449.4,27.28,450s59.45-8.72,79.19-19.4,51-16.28,68.22-15.27,21.58,5.3,33.69,5.26,22.78-1.86,32.12-2.73,13.67-2.91,19.67-6.45-.09-1.73-.31-4.82c2.59-2.81,2.3-4.95-.45-7.65,1.57-3.82.75-5.54-3.37-6.74-7.26.75,2.21-8.6-4-8.12s-6.62,2-10.47-.65-13.31,1-17.69.65c-6-.54-6-.54-12.26,1.46s-5.27,2.88-16.1,4.69S183.87,400.46,163,400s-75.82.68-99.26,4.53S29.36,410.81,8.92,416.94Z"/><path class="cls-1" d="M259.79,410.59c-7.42,1-12.88,2.79-20.69,3.5s-17.78.46-25.93.92"/><path class="cls-1" d="M259.4,402.92c-7.83,1.27-15.56,3.92-23.44,4.78s-15.63-.15-23.5.28"/><path class="cls-1" d="M26.15,330C18.29,352.86,8.92,393.68,4,413.18s-8.25,30.3,9.11,36,23.8-20.6,22.06-34.68c1.48-22.09,7.19-41,18.79-59.48C44.37,347.06,35.28,338,26.15,330Z"/><path class="cls-2" d="M25.32,332.75C34.2,341.61,43.49,350,53,358.22c-2.19,3.41-4.3,6.87-6.41,10.34-6.81-9.54-14.93-17.68-25.31-23.21C22.55,341.13,23.9,336.93,25.32,332.75Z"/><path class="cls-3" d="M29.17,317.13c-2.51,2.12-6.3,2.83-6.1,7.37s1.22,6.13,6.48,11S50.28,354.57,55.28,360s8.53-2.58,10.84-4c-.92-1.7-1.81-2.93-2.62-4.45-.26-.49-.11-1.08-.32-1.59-3.79-4-7.43-8.24-11.12-12.37-2.68-1.05-5.37-2.06-8.07-3.05-3.22-3.14-6.42-6.39-9.55-9.56-.69-1.12-.44-1.41-1.32-2.74S30.35,318.74,29.17,317.13Z"/><path class="cls-3" d="M113.1,236.78c50.44,2.36,23.6,48.74,11.54,79.27-7.15,8.77-19.77,26.24-25.25,33.3s-5.23,6.33-10.83,8-10.64.31-16.16,2.12c-3.76-1.84-8.59-4-9.6-8.39-4.1-4.83-6.55-10.12-13.3-12.28s-14-7.06-17.23-14.11c-1.5-1.63-2.8-3.33-4.2-5,.56-1.76,1.16-3.53,1.7-5.28s1.11-3.19,1.59-5.11c-5.26-8.7-10.54-24-7.42-33s8.34-17.94,10.65-24.63.08-3.75,7.7-7.55,36.55-14.11,46.68-7a5.42,5.42,0,0,1,2.34,4.87C98.19,240.64,106.06,236.45,113.1,236.78Z"/><path class="cls-8" d="M29.18,318.39c-1.34,1.07-3.93,1.76-4.54,3.5s.53,1.61,1.89,2.81.74.1,2.35,3.42S39.63,339.5,44.3,340.37s9.51,1.88,12.35,4.58-5.58-3.8-10.09-5.89c-.52-.24-9.29-5.12-10.25-7.06s-2.69-3.25-3.35-4.56,0-.47-.86-1.64-2.8-3.25-3.81-4.64A4.86,4.86,0,0,1,29.18,318.39Z"/><path class="cls-8" d="M91.25,243.78c.75,3.55,1.38,7.11,2.2,10.65,3.94-3,9.89-6.23,13.34-9.27s-.41-4.29-2.7-5C99.72,241.35,95.54,242.55,91.25,243.78Z"/><path class="cls-8" d="M60.26,253.29S48.68,268,47.58,271.66A6.77,6.77,0,0,0,49.05,278s.73,15.71,1.1,21.22S67.1,332,82.69,333.06c0,0-29.08-4.35-40.36-27.55,0,0-1.36-16-1.32-26.09,0,0-1.35-1.94-.84-6.07a10.65,10.65,0,0,1,3.42-6.51Z"/><path class="cls-10" d="M167.78,169S181.5,182,194,180.56s19.14-12.17,19.14-12.17-3.46,29.8-15.95,32.25S170.22,179.47,167.78,169Z"/><rect class="cls-11" x="169.25" y="399.94" width="8.13" height="16.23"/><ellipse class="cls-11" cx="173.98" cy="401.28" rx="12.25" ry="5.81"/><ellipse class="cls-12" cx="173.98" cy="399.68" rx="12.25" ry="5.81"/><path class="cls-13" d="M172.29,398.76c1.39.46,2.76.94,4.13,1.43.69.25,1.39.46,2.05.76a15.64,15.64,0,0,1,1.95,1v0a15.48,15.48,0,0,1-2.12-.59c-.69-.23-1.35-.55-2-.84-1.34-.58-2.68-1.17-4-1.77Z"/><path class="cls-13" d="M172.69,398.76c.67-.38,1.34-.75,2-1.11a6.47,6.47,0,0,1,1-.51,4.34,4.34,0,0,1,1.13-.27l0,0a4.79,4.79,0,0,1-1,.68,7.58,7.58,0,0,1-1.06.43q-1.06.41-2.16.78Z"/><path class="cls-7" d="M502.26,8.73,493.79,47.1,460.14,199.55,407.31,84.23,378.88,17.88A154.55,154.55,0,1,0,502.26,8.73Z"/><path class="cls-3" d="M460.14,199.55,493.79,47.1l8.47-38.37a154.58,154.58,0,0,0-123.38,9.15l28.43,66.35Z"/><circle class="cls-14" cx="448.3" cy="154.06" r="135.87" transform="translate(22.37 362.12) rotate(-45)"/></g></g></svg>