<svg id="Layer_1" data-name="Layer 1" xmlns="http://www.w3.org/2000/svg" xmlns:xlink="http://www.w3.org/1999/xlink" viewBox="0 0 1920 1080"><defs><linearGradient id="linear-gradient" x1="907.81" y1="799.01" x2="907.81" y2="567.59" gradientUnits="userSpaceOnUse"><stop offset="0" stop-color="#754c24"/><stop offset="1" stop-color="#8c6239"/></linearGradient><linearGradient id="linear-gradient-2" x1="958.85" y1="1079.75" x2="958.85" y2="909.03" gradientUnits="userSpaceOnUse"><stop offset="0" stop-color="#8c6239"/><stop offset="1" stop-color="#754c24"/></linearGradient></defs><title>UI_2</title><path d="M1147.92,80.08h83.88a23.44,23.44,0,0,1,23.44,23.44v68.83a23.44,23.44,0,0,1-23.44,23.44h-83.88a57.86,57.86,0,0,1-57.86-57.86v0a57.86,57.86,0,0,1,57.86-57.86Z" transform="translate(2217.91 -411.21) rotate(145.58)" fill="#a67c52"/><path d="M1264.7,335.51C1250,336,1187,337,1187,337V304Z" fill="#734f31"/><path d="M1277.68,429.6C1274,433,1191,596,1191,596l2-133Z" fill="#734f31"/><polygon points="863.06 567.59 714.15 567.59 714.15 436.71 837.45 436.71 863.06 567.59" fill="#8c6239"/><polygon points="1232.01 567.59 1200.71 909.03 782.36 909.03 760.68 799.01 715.1 567.59 1232.01 567.59" fill="#755032"/><polygon points="1100.52 567.59 1079.31 799.01 760.68 799.01 715.1 567.59 1100.52 567.59" fill="url(#linear-gradient)"/><image width="2800" height="2100" transform="translate(625 -47) scale(0.44 0.5)" xlink:href="Images/phone.png"/><polygon points="1158.97 1079.75 717 1079.75 780.54 909.03 1200.71 909.03 1158.97 1079.75" fill="url(#linear-gradient-2)"/><path d="M837.45,436.71H714.15L767.27,258.4h0c60.41,0,102.86,59.47,83.23,116.61Z" fill="#8c6239"/><path d="M1189.94,202.08h83.88a23.44,23.44,0,0,1,23.44,23.44v68.83a23.44,23.44,0,0,1-23.44,23.44h-83.88a57.86,57.86,0,0,1-57.86-57.86v0A57.86,57.86,0,0,1,1189.94,202.08Z" transform="translate(171.91 -415.08) rotate(20.84)" fill="#a67c52"/><path d="M1269.18,608.79l-136.42,86.33a57.23,57.23,0,0,1-79-17.75l-.67-1.08a57.15,57.15,0,0,1,17.76-78.94L1207.32,511a23.18,23.18,0,0,1,32,7.19l19.56,30.91,17.51,27.68A23.17,23.17,0,0,1,1269.18,608.79Z" fill="#a67c52"/><path d="M1250.22,578.44l-136.43,86.33a57.25,57.25,0,0,1-67.73-4.79,57.23,57.23,0,0,1,24.83-62.63L1207.32,511a23.18,23.18,0,0,1,32,7.19l19.56,30.91A23.19,23.19,0,0,1,1250.22,578.44Z" fill="#a67c52"/><path d="M1107.59,605.31h0a18,18,0,0,1,18,18v53a18,18,0,0,1-18,18h0a44.51,44.51,0,0,1-44.51-44.51v0a44.51,44.51,0,0,1,44.51-44.51Z" transform="translate(-175.7 732.47) rotate(-34.42)" fill="#ff7bac"/><path d="M1196.74,207h0a18,18,0,0,1,18,18v53a18,18,0,0,1-18,18h0a44.51,44.51,0,0,1-44.51-44.51v0A44.51,44.51,0,0,1,1196.74,207Z" transform="translate(59.29 -195.8) rotate(9.7)" fill="#ff7bac"/><path d="M1092.58,387.39h160.56a23.44,23.44,0,0,1,23.44,23.44v68.83a23.44,23.44,0,0,1-23.44,23.44H1092.58a57.86,57.86,0,0,1-57.86-57.86v0A57.86,57.86,0,0,1,1092.58,387.39Z" transform="matrix(0.85, -0.53, 0.53, 0.85, -58.99, 686.95)" fill="#8c6239"/><path d="M1101.9,443.13h0a18,18,0,0,1,18,18v53a18,18,0,0,1-18,18h0a44.51,44.51,0,0,1-44.51-44.51v0a44.51,44.51,0,0,1,44.51-44.51Z" transform="translate(-85.01 700.85) rotate(-34.42)" fill="#ff7bac"/><path d="M761.21,278.74l-28.39,95.31L777,380S809.41,290.48,761.21,278.74Z" fill="#ff7bac"/></svg>


