<svg xmlns="http://www.w3.org/2000/svg" viewBox="0 0 650 380.5" id="test"><defs><style>.cls-1{fill:#1b1464;}.cls-2{fill:#1a177a;}.cls-3{fill:#f2f2f2;}.cls-4{fill:#ccc;}.cls-5{fill:#fcee21;}</style></defs><title>Asset 1</title><g id="Layer_2" data-name="Layer 2"><g id="Layer_1-2" data-name="Layer 1"><path class="cls-1" d="M46.43,0A28.43,28.43,0,0,0,18,28.43V315H0v17H18v13H312V0Z"/><path class="cls-2" d="M650,302.8v37.4a4.8,4.8,0,0,1-4.8,4.8H312V0H506.65a25.22,25.22,0,0,1,19.57,9.33L631,138.59a31.2,31.2,0,0,1,7,19.64V298h7.2A4.8,4.8,0,0,1,650,302.8Z"/><path class="cls-3" d="M585.39,128H434.53A20.53,20.53,0,0,1,414,107.47V44.53A20.53,20.53,0,0,1,434.53,24h53.23a44.78,44.78,0,0,1,34.68,16.45l66.11,80.88A4.09,4.09,0,0,1,585.39,128Z"/><path class="cls-3" d="M388,39.94v71.12a15.78,15.78,0,0,1-4.82,11.38L210.5,27.93a15.81,15.81,0,0,1,10.38-3.86H372.12A15.87,15.87,0,0,1,388,39.94Z"/><rect class="cls-4" x="41" y="24.07" width="131" height="102.87" rx="15.88" ry="15.88"/><path class="cls-4" d="M383.18,122.44a15.75,15.75,0,0,1-11.06,4.49H220.88A15.87,15.87,0,0,1,205,111.06V39.94a15.82,15.82,0,0,1,5.5-12Z"/><rect class="cls-5" x="427" y="165" width="47" height="10" rx="5" ry="5"/><path class="cls-4" d="M147.5,271A54.5,54.5,0,1,0,202,325.5,54.5,54.5,0,0,0,147.5,271Zm0,87A32.5,32.5,0,1,1,180,325.5,32.5,32.5,0,0,1,147.5,358Z"/><circle class="cls-3" cx="147.5" cy="325.5" r="32.5"/><circle class="cls-4" cx="506.63" cy="326" r="54.5"/><circle class="cls-3" cx="506.63" cy="326" r="32.5"/><path class="cls-3" d="M601.77,150h16.07A10.16,10.16,0,0,1,628,160.16v8.2a4.63,4.63,0,0,1-4.63,4.63h-21.6a5.77,5.77,0,0,1-5.77-5.77V155.77A5.77,5.77,0,0,1,601.77,150Z"/></g></g></svg>